<?xml version="1.0" standalone="no"?>
<!DOCTYPE svg PUBLIC "-//W3C//DTD SVG 20010904//EN"
 "http://www.w3.org/TR/2001/REC-SVG-20010904/DTD/svg10.dtd">
<svg version="1.0" xmlns="http://www.w3.org/2000/svg"
 width="64.000000pt" height="64.000000pt" viewBox="0 0 64.000000 64.000000"
 preserveAspectRatio="xMidYMid meet">
<metadata>
Created by potrace 1.15, written by Peter Selinger 2001-2017
</metadata>
<g transform="translate(0.000000,64.000000) scale(0.100000,-0.100000)"
fill="#000000" stroke="none">
<path d="M205 584 c-49 -30 -114 -66 -143 -80 l-52 -27 2 -160 c3 -133 6 -161
18 -163 27 -4 225 -124 225 -136 0 -7 17 -13 38 -14 31 -2 60 10 166 72 71 40
136 74 145 74 14 0 16 19 16 170 0 147 -2 170 -15 170 -15 0 -245 128 -245
137 0 5 49 -21 147 -79 46 -27 86 -48 88 -46 2 2 -46 32 -106 67 -148 86 -166
87 -284 15z m228 -113 c3 -16 9 -40 13 -55 l6 -26 -135 0 -135 0 9 43 c5 23
12 48 14 55 3 8 35 12 113 12 l110 0 5 -29z m-215 -141 c27 -17 32 -26 32 -57
0 -26 8 -45 27 -65 l27 -28 -24 -25 c-13 -14 -35 -25 -49 -25 -22 0 -33 13
-73 83 l-48 82 32 28 c38 32 35 32 76 7z m269 -2 c18 -13 33 -27 33 -31 0 -4
-21 -44 -46 -87 -50 -88 -69 -98 -111 -58 -29 28 -29 42 2 62 20 13 25 25 25
59 0 35 4 45 28 59 34 22 30 22 69 -4z"/>
</g>
</svg>
